#N canvas 0 48 958 1150 10;
#X obj 40 40 import labjack;
#X obj 69 316 LJ_AOOut;
#X obj 271 152 bng 15 250 50 0 empty empty empty 17 7 0 10 -262144
-1 -1;
#X floatatom 271 267 5 0 0 0 - - -;
#X floatatom 171 270 5 0 0 0 - - -;
#X obj 39 267 bng 15 250 50 0 empty empty empty 17 7 0 10 -262144 -1
-1;
#X obj 56 117 vsl 15 128 0 5 0 0 empty empty empty 0 -9 0 10 -262144
-1 -1 0 1;
#X floatatom 107 274 5 0 0 0 - - -;
#X obj 295 152 tgl 15 0 empty empty empty 17 7 0 10 -262144 -1 -1 0
1;
#X obj 295 178 metro 30;
#X floatatom 358 266 5 0 0 0 - - -;
#X obj 383 517 LJ_TrisIO 0 1;
#X obj 416 478 tgl 15 0 empty empty empty 17 7 0 10 -262144 -1 -1 1
1;
#X obj 453 472 tgl 15 0 empty empty empty 17 7 0 10 -262144 -1 -1 1
1;
#X obj 380 470 bng 15 250 50 0 empty empty empty 17 7 0 10 -262144
-1 -1;
#X obj 512 520 LJ_IOOut 0 1;
#X obj 512 468 bng 15 250 50 0 empty empty empty 17 7 0 10 -262144
-1 -1;
#X obj 548 467 tgl 15 0 empty empty empty 17 7 0 10 -262144 -1 -1 1
1;
#X obj 577 465 tgl 15 0 empty empty empty 17 7 0 10 -262144 -1 -1 1
1;
#X obj 415 687 LJ_InputSample;
#X obj 413 641 bng 15 250 50 0 empty empty empty 17 7 0 10 -262144
-1 -1;
#X obj 417 745 tgl 15 0 empty empty empty 17 7 0 10 -262144 -1 -1 1
1;
#X obj 437 744 tgl 15 0 empty empty empty 17 7 0 10 -262144 -1 -1 0
1;
#X obj 460 746 tgl 15 0 empty empty empty 17 7 0 10 -262144 -1 -1 0
1;
#X obj 481 744 tgl 15 0 empty empty empty 17 7 0 10 -262144 -1 -1 1
1;
#X obj 601 624 LJ_TrisIO 2 3;
#X obj 604 566 bng 15 250 50 0 empty empty empty 17 7 0 10 -262144
-1 -1;
#X obj 638 564 tgl 15 0 empty empty empty 17 7 0 10 -262144 -1 -1 1
1;
#X obj 677 562 tgl 15 0 empty empty empty 17 7 0 10 -262144 -1 -1 1
1;
#X obj 669 515 LJ_IOOut 2 3;
#X obj 668 461 bng 15 250 50 0 empty empty empty 17 7 0 10 -262144
-1 -1;
#X obj 695 461 tgl 15 0 empty empty empty 17 7 0 10 -262144 -1 -1 1
1;
#X obj 728 453 tgl 15 0 empty empty empty 17 7 0 10 -262144 -1 -1 1
1;
#X floatatom 454 269 5 0 0 0 - - -;
#X obj 449 159 bng 15 250 50 0 empty empty empty 17 7 0 10 -262144
-1 -1;
#X obj 165 122 vsl 15 128 0 5 0 0 empty empty empty 0 -9 0 10 -262144
-1 -1 0 1;
#X floatatom 507 271 5 0 0 0 - - -;
#X obj 271 217 LJ_AISample 0 0;
#X obj 453 213 LJ_InputSample 0 0;
#X obj 485 159 metro 30;
#X obj 486 122 tgl 15 0 empty empty empty 17 7 0 10 -262144 -1 -1 0
1;
#X floatatom 560 267 5 0 0 0 - - -;
#X obj 563 310 bng 15 250 50 0 empty empty empty 17 7 0 10 -262144
-1 -1;
#X obj 592 764 LJ_IOIn 0 1 2 3;
#X obj 590 702 bng 15 250 50 0 empty empty empty 17 7 0 10 -262144
-1 -1;
#X obj 587 804 tgl 15 0 empty empty empty 17 7 0 10 -262144 -1 -1 0
1;
#X obj 617 807 tgl 15 0 empty empty empty 17 7 0 10 -262144 -1 -1 0
1;
#X obj 647 806 tgl 15 0 empty empty empty 17 7 0 10 -262144 -1 -1 0
1;
#X obj 678 806 tgl 15 0 empty empty empty 17 7 0 10 -262144 -1 -1 0
1;
#X connect 2 0 37 0;
#X connect 4 0 1 2;
#X connect 5 0 1 0;
#X connect 6 0 1 1;
#X connect 6 0 7 0;
#X connect 6 0 5 0;
#X connect 8 0 9 0;
#X connect 9 0 37 0;
#X connect 12 0 11 1;
#X connect 13 0 11 2;
#X connect 14 0 11 0;
#X connect 16 0 15 0;
#X connect 17 0 15 1;
#X connect 18 0 15 2;
#X connect 19 0 21 0;
#X connect 19 1 22 0;
#X connect 19 2 23 0;
#X connect 19 3 24 0;
#X connect 20 0 19 0;
#X connect 26 0 25 0;
#X connect 27 0 25 1;
#X connect 28 0 25 2;
#X connect 30 0 29 0;
#X connect 31 0 29 1;
#X connect 32 0 29 2;
#X connect 34 0 38 0;
#X connect 35 0 4 0;
#X connect 37 0 3 0;
#X connect 37 1 10 0;
#X connect 38 0 33 0;
#X connect 38 1 36 0;
#X connect 38 6 41 0;
#X connect 39 0 38 0;
#X connect 40 0 39 0;
#X connect 41 0 42 0;
#X connect 43 0 45 0;
#X connect 43 1 46 0;
#X connect 43 2 47 0;
#X connect 43 3 48 0;
#X connect 44 0 43 0;
