#N canvas 0 48 958 1150 10;
#X obj 49 37 import labjack;
#X text 146 38 need to import labjack;
#X obj 49 313 LJ_AOOut;
#X floatatom 94 288 5 0 0 0 - - -;
#X obj 49 186 bng 15 250 50 0 empty empty empty 17 7 0 10 -262144 -1
-1;
#X floatatom 71 246 5 0 0 0 - - -;
#X obj 74 223 hsl 128 15 0 127 0 0 empty empty empty -2 -8 0 10 -262144
-1 -1 0 1;
#X obj 97 266 hsl 128 15 0 127 0 0 empty empty empty -2 -8 0 10 -262144
-1 -1 0 1;
#X text 264 185 Send values to labjack;
#X text 266 226 Set AO0;
#X text 264 266 Set AO1;
#X text 49 98 LJ_AOOut set values of the two analog outputs;
#X connect 3 0 2 2;
#X connect 4 0 2 0;
#X connect 5 0 2 1;
#X connect 6 0 5 0;
#X connect 7 0 3 0;
