#N canvas 0 48 958 1150 10;
#X obj 49 37 import labjack;
#X text 146 38 need to import labjack;
#X obj 54 136 bng 15 250 50 0 empty empty empty 17 7 0 10 -262144 -1
-1;
#X obj 82 214 tgl 15 0 empty empty empty 17 7 0 10 -262144 -1 -1 0
1;
#X obj 111 241 tgl 15 0 empty empty empty 17 7 0 10 -262144 -1 -1 0
1;
#X text 170 264 ...;
#X text 164 184 Parameters initialize which IO ports are managed by
Pd ports;
#X text 164 218 first Port value;
#X text 167 247 Second port Value;
#X text 168 133 Get values from labjack;
#X text 53 311 Directions of the ports must be set trough;
#X obj 54 186 LJ_DIn 0 1;
#X obj 317 310 LJ_TrisD;
#X text 48 84 LJ_DIn get port values from Labjack D Ports;
#X connect 2 0 11 0;
#X connect 11 1 3 0;
#X connect 11 2 4 0;
