#N canvas 0 48 958 1150 10;
#X obj 49 37 import labjack;
#X text 146 38 need to import labjack;
#X text 202 135 Send values to labjack;
#X obj 62 147 bng 15 250 50 0 empty empty empty 17 7 0 10 -262144 -1
-1;
#X obj 96 172 tgl 15 0 empty empty empty 17 7 0 10 -262144 -1 -1 0
1;
#X obj 131 195 tgl 15 0 empty empty empty 17 7 0 10 -262144 -1 -1 0
1;
#X text 202 210 ...;
#X text 198 191 Set second port (here IO1);
#X text 199 228 Parameters initialize which D ports are managed by
Pd ports;
#X obj 62 225 LJ_TrisD 0 1;
#X text 49 98 LJ_TrisD set directions of the D digital ports for use
with;
#X text 477 98 and;
#X obj 421 100 LJ_DIn;
#X obj 519 101 LJ_DOut;
#X text 199 171 Set first port (here D0) (0 > in \, 1 > out);
#X connect 3 0 9 0;
#X connect 4 0 9 1;
#X connect 5 0 9 2;
