#N canvas 0 48 958 1150 10;
#X obj 49 37 import labjack;
#X text 146 38 need to import labjack;
#X text 199 140 Send values to labjack;
#X obj 62 147 bng 15 250 50 0 empty empty empty 17 7 0 10 -262144 -1
-1;
#X obj 99 172 tgl 15 0 empty empty empty 17 7 0 10 -262144 -1 -1 0
1;
#X obj 137 196 tgl 15 0 empty empty empty 17 7 0 10 -262144 -1 -1 0
1;
#X text 202 210 ...;
#X text 198 191 Set second port (here IO1);
#X text 199 228 Parameters initialize which IO ports are managed by
Pd ports;
#X obj 62 225 LJ_TrisIO 0 1;
#X text 49 98 LJ_TrisIO set directions of the IO digital ports for
;
#X obj 372 98 LJ_IOOut;
#X text 432 98 and;
#X obj 464 98 LJ_IOIn;
#X text 199 171 Set first port (here IO0) (0 > out \, 1 > in);
#X connect 3 0 9 0;
#X connect 4 0 9 1;
#X connect 5 0 9 2;
